<?xml version="1.0" standalone="no"?>
<!DOCTYPE svg PUBLIC "-//W3C//DTD SVG 20010904//EN"
 "http://www.w3.org/TR/2001/REC-SVG-20010904/DTD/svg10.dtd">
<svg version="1.0" xmlns="http://www.w3.org/2000/svg"
 width="768.000000pt" height="768.000000pt" viewBox="0 0 768.000000 768.000000"
 preserveAspectRatio="xMidYMid meet">
<metadata>
Created by potrace 1.11, written by Peter Selinger 2001-2013
</metadata>
<g transform="translate(0.000000,768.000000) scale(0.100000,-0.100000)"
fill="#000000" stroke="none">
<path d="M3663 7032 c-59 -18 -824 -644 -1518 -1241 -382 -329 -406 -354 -440
-467 -48 -157 14 -289 155 -328 108 -31 252 -1 370 74 78 51 234 168 365 275
55 45 136 110 180 146 44 35 144 121 223 191 78 71 146 128 151 128 5 0 35
-35 67 -77 243 -325 590 -503 979 -503 65 0 105 -4 113 -12 13 -13 18 -381 6
-412 -3 -8 -221 -100 -527 -222 -1660 -659 -2308 -917 -2354 -940 -69 -33
-110 -81 -119 -140 -15 -101 42 -180 185 -254 95 -50 152 -107 178 -183 16
-48 18 -96 18 -568 l0 -515 -38 -77 c-49 -99 -126 -201 -266 -351 -168 -181
-190 -220 -191 -338 0 -60 3 -71 32 -109 50 -64 88 -81 178 -77 73 3 82 6 305
116 280 136 367 163 476 144 38 -7 95 -25 127 -41 68 -35 339 -235 640 -474
252 -200 308 -236 412 -268 62 -19 98 -23 210 -23 161 0 217 11 327 69 111 59
160 96 651 505 90 74 167 137 172 138 6 2 101 -84 213 -191 435 -418 499 -471
601 -503 118 -37 240 -27 351 28 98 49 337 255 616 529 139 136 159 160 174
207 28 89 1 154 -80 188 -46 19 -78 18 -177 -6 -92 -22 -145 -25 -198 -10 -43
12 -225 155 -337 265 -74 73 -82 85 -92 135 -7 38 -10 615 -7 1860 2 1699 4
1808 20 1855 29 82 140 295 263 509 161 278 196 354 201 433 4 61 3 64 -32 99
l-37 37 -74 -5 c-58 -4 -88 -12 -132 -35 -357 -188 -461 -231 -663 -274 -140
-30 -418 -33 -555 -5 -211 42 -430 133 -566 236 -122 92 -243 239 -317 386
-44 87 -69 104 -151 103 -36 -1 -76 -4 -88 -7z m657 -4200 c0 -609 -3 -1116
-6 -1128 -3 -12 -33 -37 -72 -59 -37 -22 -98 -59 -136 -83 -37 -24 -73 -41
-80 -38 -6 2 -85 71 -176 152 -202 180 -394 340 -520 433 -52 38 -108 81 -125
95 l-30 24 -3 614 c-1 482 1 618 11 638 9 17 35 34 82 53 39 15 288 115 555
221 267 106 488 191 493 189 4 -2 7 -502 7 -1111z"/>
</g>
</svg>
